<svg xmlns="http://www.w3.org/2000/svg" viewBox="0 0 32 32" width="32" height="32">
  <defs>
    <linearGradient id="g" x1="0" y1="0" x2="0" y2="1">
      <stop offset="0%" stop-color="#4F46E5"/>
      <stop offset="100%" stop-color="#312E81"/>
    </linearGradient>
  </defs>
  <path d="M16 1C16 1 4 3 4 6v12c0 6 5.5 10.5 12 13 6.5-2.5 12-7 12-13V6c0-3-12-5-12-5z" fill="url(#g)" rx="2"/>
  <path d="M8 9h3v13H8z" fill="white"/>
  <path fill-rule="evenodd" d="M13 9h6.5C22.5 9 24 10.5 24 13s-1.5 4-4.5 4H16v5h-3zM16 11.5h3c1.5 0 2.2.7 2.2 1.5s-.7 1.5-2.2 1.5h-3z" fill="white"/>
</svg>
